<mxfile host="app.diagrams.net" modified="2023-07-25T09:05:54.218Z" agent="Mozilla/5.0 (Macintosh; Intel Mac OS X 10_15_7) AppleWebKit/605.1.15 (KHTML, like Gecko) Version/16.4 Safari/605.1.15" etag="FL_hfTxNeeHtKphsYWUB" version="21.5.2" type="device">
  <diagram name="Page-1" id="9B1K-_jjaU90-WZYw8Fh">
    <mxGraphModel dx="841" dy="471" grid="1" gridSize="10" guides="1" tooltips="1" connect="1" arrows="1" fold="1" page="1" pageScale="1" pageWidth="827" pageHeight="1169" math="1" shadow="0">
      <root>
        <mxCell id="0" />
        <mxCell id="1" parent="0" />
        <mxCell id="3EwqKkP2R3SG_fMcNXbj-29" value="" style="rounded=0;whiteSpace=wrap;html=1;fontFamily=Libertine;fillColor=#FFFFFF;fontColor=#333333;strokeColor=#A0B1BA;dashed=1;fontSource=https%3A%2F%2Ffonts.cdnfonts.com%2Fcss%2Flinux-libertine;" vertex="1" parent="1">
          <mxGeometry x="280" y="125" width="100" height="150" as="geometry" />
        </mxCell>
        <mxCell id="3EwqKkP2R3SG_fMcNXbj-6" value="&lt;font data-font-src=&quot;https://fonts.cdnfonts.com/css/linux-libertine&quot; face=&quot;Libertine&quot;&gt;\(R\)&lt;/font&gt;" style="ellipse;whiteSpace=wrap;html=1;aspect=fixed;strokeColor=none;spacing=0;" vertex="1" parent="1">
          <mxGeometry x="230" y="310" width="20" height="20" as="geometry" />
        </mxCell>
        <mxCell id="3EwqKkP2R3SG_fMcNXbj-47" style="rounded=0;orthogonalLoop=1;jettySize=auto;html=1;exitX=0.5;exitY=1;exitDx=0;exitDy=0;entryX=0.5;entryY=0;entryDx=0;entryDy=0;endArrow=none;endFill=0;" edge="1" parent="1" source="3EwqKkP2R3SG_fMcNXbj-7" target="3EwqKkP2R3SG_fMcNXbj-30">
          <mxGeometry relative="1" as="geometry" />
        </mxCell>
        <mxCell id="3EwqKkP2R3SG_fMcNXbj-7" value="\(γ\)" style="ellipse;whiteSpace=wrap;html=1;aspect=fixed;strokeColor=none;spacing=0;" vertex="1" parent="1">
          <mxGeometry x="230" y="70" width="20" height="20" as="geometry" />
        </mxCell>
        <mxCell id="3EwqKkP2R3SG_fMcNXbj-9" value="" style="rounded=0;whiteSpace=wrap;html=1;fontFamily=Libertine;fillColor=#FFFFFF;fontColor=#333333;strokeColor=#A0B1BA;dashed=1;fontSource=https%3A%2F%2Ffonts.cdnfonts.com%2Fcss%2Flinux-libertine;" vertex="1" parent="1">
          <mxGeometry x="100" y="125" width="100" height="150" as="geometry" />
        </mxCell>
        <mxCell id="3EwqKkP2R3SG_fMcNXbj-46" style="rounded=0;orthogonalLoop=1;jettySize=auto;html=1;exitX=0.5;exitY=0;exitDx=0;exitDy=0;entryX=0.5;entryY=1;entryDx=0;entryDy=0;endArrow=none;endFill=0;" edge="1" parent="1" source="3EwqKkP2R3SG_fMcNXbj-14" target="3EwqKkP2R3SG_fMcNXbj-7">
          <mxGeometry relative="1" as="geometry" />
        </mxCell>
        <mxCell id="3EwqKkP2R3SG_fMcNXbj-14" value="\(∪&lt;br&gt;\)" style="ellipse;whiteSpace=wrap;html=1;aspect=fixed;fontFamily=Libertine;fillColor=none;strokeColor=none;fontSource=https%3A%2F%2Ffonts.cdnfonts.com%2Fcss%2Flinux-libertine;" vertex="1" parent="1">
          <mxGeometry x="140.5" y="127.5" width="20" height="20" as="geometry" />
        </mxCell>
        <mxCell id="3EwqKkP2R3SG_fMcNXbj-15" style="edgeStyle=orthogonalEdgeStyle;rounded=0;orthogonalLoop=1;jettySize=auto;html=1;exitX=0.5;exitY=0;exitDx=0;exitDy=0;entryX=0.5;entryY=1;entryDx=0;entryDy=0;endArrow=none;endFill=0;fontFamily=Libertine;strokeColor=default;fontSource=https%3A%2F%2Ffonts.cdnfonts.com%2Fcss%2Flinux-libertine;" edge="1" parent="1" source="3EwqKkP2R3SG_fMcNXbj-16" target="3EwqKkP2R3SG_fMcNXbj-27">
          <mxGeometry relative="1" as="geometry" />
        </mxCell>
        <mxCell id="3EwqKkP2R3SG_fMcNXbj-45" style="rounded=0;orthogonalLoop=1;jettySize=auto;html=1;exitX=0.5;exitY=1;exitDx=0;exitDy=0;entryX=0.5;entryY=0;entryDx=0;entryDy=0;endArrow=none;endFill=0;" edge="1" parent="1" source="3EwqKkP2R3SG_fMcNXbj-16" target="3EwqKkP2R3SG_fMcNXbj-6">
          <mxGeometry relative="1" as="geometry" />
        </mxCell>
        <mxCell id="3EwqKkP2R3SG_fMcNXbj-16" value="\(σ\)" style="ellipse;whiteSpace=wrap;html=1;aspect=fixed;fontFamily=Libertine;fillColor=none;strokeColor=none;spacingBottom=5;fontSource=https%3A%2F%2Ffonts.cdnfonts.com%2Fcss%2Flinux-libertine;" vertex="1" parent="1">
          <mxGeometry x="140.5" y="250.5" width="20" height="20" as="geometry" />
        </mxCell>
        <mxCell id="3EwqKkP2R3SG_fMcNXbj-17" style="rounded=0;orthogonalLoop=1;jettySize=auto;html=1;entryX=0.5;entryY=1;entryDx=0;entryDy=0;fontFamily=Libertine;endArrow=none;endFill=0;strokeColor=default;fontSource=https%3A%2F%2Ffonts.cdnfonts.com%2Fcss%2Flinux-libertine;" edge="1" parent="1" source="3EwqKkP2R3SG_fMcNXbj-18" target="3EwqKkP2R3SG_fMcNXbj-23">
          <mxGeometry relative="1" as="geometry" />
        </mxCell>
        <mxCell id="3EwqKkP2R3SG_fMcNXbj-18" value="\(⋈&lt;br style=&quot;border-color: var(--border-color);&quot;&gt;_1\)" style="ellipse;whiteSpace=wrap;html=1;aspect=fixed;fontFamily=Libertine;fillColor=none;strokeColor=none;fontSource=https%3A%2F%2Ffonts.cdnfonts.com%2Fcss%2Flinux-libertine;" vertex="1" parent="1">
          <mxGeometry x="110.5" y="191" width="20" height="20" as="geometry" />
        </mxCell>
        <mxCell id="3EwqKkP2R3SG_fMcNXbj-19" style="rounded=0;orthogonalLoop=1;jettySize=auto;html=1;entryX=0.5;entryY=1;entryDx=0;entryDy=0;fontFamily=Libertine;endArrow=none;endFill=0;strokeColor=default;fontSource=https%3A%2F%2Ffonts.cdnfonts.com%2Fcss%2Flinux-libertine;" edge="1" parent="1" source="3EwqKkP2R3SG_fMcNXbj-21" target="3EwqKkP2R3SG_fMcNXbj-25">
          <mxGeometry relative="1" as="geometry" />
        </mxCell>
        <mxCell id="3EwqKkP2R3SG_fMcNXbj-20" style="rounded=0;orthogonalLoop=1;jettySize=auto;html=1;exitX=0.5;exitY=1;exitDx=0;exitDy=0;entryX=0.5;entryY=0;entryDx=0;entryDy=0;endArrow=none;endFill=0;fontFamily=Libertine;strokeColor=default;fontSource=https%3A%2F%2Ffonts.cdnfonts.com%2Fcss%2Flinux-libertine;" edge="1" parent="1" source="3EwqKkP2R3SG_fMcNXbj-21" target="3EwqKkP2R3SG_fMcNXbj-27">
          <mxGeometry relative="1" as="geometry" />
        </mxCell>
        <mxCell id="3EwqKkP2R3SG_fMcNXbj-21" value="\(⋈&lt;br style=&quot;border-color: var(--border-color);&quot;&gt;_2\)" style="ellipse;whiteSpace=wrap;html=1;aspect=fixed;fontFamily=Libertine;fillColor=none;strokeColor=none;fontSource=https%3A%2F%2Ffonts.cdnfonts.com%2Fcss%2Flinux-libertine;" vertex="1" parent="1">
          <mxGeometry x="169.5" y="191" width="20" height="20" as="geometry" />
        </mxCell>
        <mxCell id="3EwqKkP2R3SG_fMcNXbj-22" style="rounded=0;orthogonalLoop=1;jettySize=auto;html=1;entryX=0;entryY=1;entryDx=0;entryDy=0;fontFamily=Libertine;endArrow=none;endFill=0;strokeColor=default;fontSource=https%3A%2F%2Ffonts.cdnfonts.com%2Fcss%2Flinux-libertine;" edge="1" parent="1" source="3EwqKkP2R3SG_fMcNXbj-23" target="3EwqKkP2R3SG_fMcNXbj-14">
          <mxGeometry relative="1" as="geometry">
            <mxPoint x="135.5" y="137.5" as="targetPoint" />
          </mxGeometry>
        </mxCell>
        <mxCell id="3EwqKkP2R3SG_fMcNXbj-23" value="\(⋈&lt;br style=&quot;border-color: var(--border-color);&quot;&gt;_2\)" style="ellipse;whiteSpace=wrap;html=1;aspect=fixed;fontFamily=Libertine;fillColor=none;strokeColor=none;fontSource=https%3A%2F%2Ffonts.cdnfonts.com%2Fcss%2Flinux-libertine;" vertex="1" parent="1">
          <mxGeometry x="110.5" y="151.5" width="20" height="20" as="geometry" />
        </mxCell>
        <mxCell id="3EwqKkP2R3SG_fMcNXbj-24" style="rounded=0;orthogonalLoop=1;jettySize=auto;html=1;entryX=1;entryY=1;entryDx=0;entryDy=0;fontFamily=Libertine;endArrow=none;endFill=0;strokeColor=default;fontSource=https%3A%2F%2Ffonts.cdnfonts.com%2Fcss%2Flinux-libertine;" edge="1" parent="1" source="3EwqKkP2R3SG_fMcNXbj-25" target="3EwqKkP2R3SG_fMcNXbj-14">
          <mxGeometry relative="1" as="geometry" />
        </mxCell>
        <mxCell id="3EwqKkP2R3SG_fMcNXbj-25" value="\(⋈&lt;br style=&quot;border-color: var(--border-color);&quot;&gt;_1\)" style="ellipse;whiteSpace=wrap;html=1;aspect=fixed;fontFamily=Libertine;fillColor=none;strokeColor=none;fontSource=https%3A%2F%2Ffonts.cdnfonts.com%2Fcss%2Flinux-libertine;" vertex="1" parent="1">
          <mxGeometry x="169.5" y="150.5" width="20" height="20" as="geometry" />
        </mxCell>
        <mxCell id="3EwqKkP2R3SG_fMcNXbj-26" style="rounded=0;orthogonalLoop=1;jettySize=auto;html=1;exitX=0.5;exitY=0;exitDx=0;exitDy=0;entryX=0.5;entryY=1;entryDx=0;entryDy=0;endArrow=none;endFill=0;fontFamily=Libertine;strokeColor=default;fontSource=https%3A%2F%2Ffonts.cdnfonts.com%2Fcss%2Flinux-libertine;" edge="1" parent="1" source="3EwqKkP2R3SG_fMcNXbj-27" target="3EwqKkP2R3SG_fMcNXbj-18">
          <mxGeometry relative="1" as="geometry" />
        </mxCell>
        <mxCell id="3EwqKkP2R3SG_fMcNXbj-27" value="&lt;font style=&quot;font-size: 10px;&quot;&gt;Multiplexer&lt;/font&gt;" style="ellipse;whiteSpace=wrap;html=1;strokeColor=none;fontFamily=Libertine;fontSource=https%3A%2F%2Ffonts.cdnfonts.com%2Fcss%2Flinux-libertine;" vertex="1" parent="1">
          <mxGeometry x="125.5" y="222.5" width="50" height="20" as="geometry" />
        </mxCell>
        <mxCell id="3EwqKkP2R3SG_fMcNXbj-30" value="\(∪&lt;br&gt;\)" style="ellipse;whiteSpace=wrap;html=1;aspect=fixed;fontFamily=Libertine;fillColor=none;strokeColor=none;fontSource=https%3A%2F%2Ffonts.cdnfonts.com%2Fcss%2Flinux-libertine;" vertex="1" parent="1">
          <mxGeometry x="320.5" y="127.5" width="20" height="20" as="geometry" />
        </mxCell>
        <mxCell id="3EwqKkP2R3SG_fMcNXbj-31" style="edgeStyle=orthogonalEdgeStyle;rounded=0;orthogonalLoop=1;jettySize=auto;html=1;exitX=0.5;exitY=0;exitDx=0;exitDy=0;entryX=0.5;entryY=1;entryDx=0;entryDy=0;endArrow=none;endFill=0;fontFamily=Libertine;strokeColor=default;fontSource=https%3A%2F%2Ffonts.cdnfonts.com%2Fcss%2Flinux-libertine;" edge="1" parent="1" source="3EwqKkP2R3SG_fMcNXbj-32" target="3EwqKkP2R3SG_fMcNXbj-43">
          <mxGeometry relative="1" as="geometry" />
        </mxCell>
        <mxCell id="3EwqKkP2R3SG_fMcNXbj-44" style="rounded=0;orthogonalLoop=1;jettySize=auto;html=1;exitX=0.5;exitY=1;exitDx=0;exitDy=0;entryX=0.5;entryY=0;entryDx=0;entryDy=0;endArrow=none;endFill=0;" edge="1" parent="1" source="3EwqKkP2R3SG_fMcNXbj-32" target="3EwqKkP2R3SG_fMcNXbj-6">
          <mxGeometry relative="1" as="geometry" />
        </mxCell>
        <mxCell id="3EwqKkP2R3SG_fMcNXbj-32" value="\(σ\)" style="ellipse;whiteSpace=wrap;html=1;aspect=fixed;fontFamily=Libertine;fillColor=none;strokeColor=none;spacingBottom=5;fontSource=https%3A%2F%2Ffonts.cdnfonts.com%2Fcss%2Flinux-libertine;" vertex="1" parent="1">
          <mxGeometry x="320.5" y="250.5" width="20" height="20" as="geometry" />
        </mxCell>
        <mxCell id="3EwqKkP2R3SG_fMcNXbj-33" style="rounded=0;orthogonalLoop=1;jettySize=auto;html=1;entryX=0.5;entryY=1;entryDx=0;entryDy=0;fontFamily=Libertine;endArrow=none;endFill=0;strokeColor=default;fontSource=https%3A%2F%2Ffonts.cdnfonts.com%2Fcss%2Flinux-libertine;" edge="1" parent="1" source="3EwqKkP2R3SG_fMcNXbj-34" target="3EwqKkP2R3SG_fMcNXbj-39">
          <mxGeometry relative="1" as="geometry" />
        </mxCell>
        <mxCell id="3EwqKkP2R3SG_fMcNXbj-34" value="\(⋈&lt;br style=&quot;border-color: var(--border-color);&quot;&gt;_1\)" style="ellipse;whiteSpace=wrap;html=1;aspect=fixed;fontFamily=Libertine;fillColor=none;strokeColor=none;fontSource=https%3A%2F%2Ffonts.cdnfonts.com%2Fcss%2Flinux-libertine;" vertex="1" parent="1">
          <mxGeometry x="290.5" y="191" width="20" height="20" as="geometry" />
        </mxCell>
        <mxCell id="3EwqKkP2R3SG_fMcNXbj-35" style="rounded=0;orthogonalLoop=1;jettySize=auto;html=1;entryX=0.5;entryY=1;entryDx=0;entryDy=0;fontFamily=Libertine;endArrow=none;endFill=0;strokeColor=default;fontSource=https%3A%2F%2Ffonts.cdnfonts.com%2Fcss%2Flinux-libertine;" edge="1" parent="1" source="3EwqKkP2R3SG_fMcNXbj-37" target="3EwqKkP2R3SG_fMcNXbj-41">
          <mxGeometry relative="1" as="geometry" />
        </mxCell>
        <mxCell id="3EwqKkP2R3SG_fMcNXbj-36" style="rounded=0;orthogonalLoop=1;jettySize=auto;html=1;exitX=0.5;exitY=1;exitDx=0;exitDy=0;entryX=0.5;entryY=0;entryDx=0;entryDy=0;endArrow=none;endFill=0;fontFamily=Libertine;strokeColor=default;fontSource=https%3A%2F%2Ffonts.cdnfonts.com%2Fcss%2Flinux-libertine;" edge="1" parent="1" source="3EwqKkP2R3SG_fMcNXbj-37" target="3EwqKkP2R3SG_fMcNXbj-43">
          <mxGeometry relative="1" as="geometry" />
        </mxCell>
        <mxCell id="3EwqKkP2R3SG_fMcNXbj-37" value="\(⋈&lt;br style=&quot;border-color: var(--border-color);&quot;&gt;_2\)" style="ellipse;whiteSpace=wrap;html=1;aspect=fixed;fontFamily=Libertine;fillColor=none;strokeColor=none;fontSource=https%3A%2F%2Ffonts.cdnfonts.com%2Fcss%2Flinux-libertine;" vertex="1" parent="1">
          <mxGeometry x="349.5" y="191" width="20" height="20" as="geometry" />
        </mxCell>
        <mxCell id="3EwqKkP2R3SG_fMcNXbj-38" style="rounded=0;orthogonalLoop=1;jettySize=auto;html=1;entryX=0;entryY=1;entryDx=0;entryDy=0;fontFamily=Libertine;endArrow=none;endFill=0;strokeColor=default;fontSource=https%3A%2F%2Ffonts.cdnfonts.com%2Fcss%2Flinux-libertine;" edge="1" parent="1" source="3EwqKkP2R3SG_fMcNXbj-39" target="3EwqKkP2R3SG_fMcNXbj-30">
          <mxGeometry relative="1" as="geometry">
            <mxPoint x="315.5" y="137.5" as="targetPoint" />
          </mxGeometry>
        </mxCell>
        <mxCell id="3EwqKkP2R3SG_fMcNXbj-39" value="\(⋈&lt;br style=&quot;border-color: var(--border-color);&quot;&gt;_2\)" style="ellipse;whiteSpace=wrap;html=1;aspect=fixed;fontFamily=Libertine;fillColor=none;strokeColor=none;fontSource=https%3A%2F%2Ffonts.cdnfonts.com%2Fcss%2Flinux-libertine;" vertex="1" parent="1">
          <mxGeometry x="290.5" y="151.5" width="20" height="20" as="geometry" />
        </mxCell>
        <mxCell id="3EwqKkP2R3SG_fMcNXbj-40" style="rounded=0;orthogonalLoop=1;jettySize=auto;html=1;entryX=1;entryY=1;entryDx=0;entryDy=0;fontFamily=Libertine;endArrow=none;endFill=0;strokeColor=default;fontSource=https%3A%2F%2Ffonts.cdnfonts.com%2Fcss%2Flinux-libertine;" edge="1" parent="1" source="3EwqKkP2R3SG_fMcNXbj-41" target="3EwqKkP2R3SG_fMcNXbj-30">
          <mxGeometry relative="1" as="geometry" />
        </mxCell>
        <mxCell id="3EwqKkP2R3SG_fMcNXbj-41" value="\(⋈&lt;br style=&quot;border-color: var(--border-color);&quot;&gt;_1\)" style="ellipse;whiteSpace=wrap;html=1;aspect=fixed;fontFamily=Libertine;fillColor=none;strokeColor=none;fontSource=https%3A%2F%2Ffonts.cdnfonts.com%2Fcss%2Flinux-libertine;" vertex="1" parent="1">
          <mxGeometry x="349.5" y="150.5" width="20" height="20" as="geometry" />
        </mxCell>
        <mxCell id="3EwqKkP2R3SG_fMcNXbj-42" style="rounded=0;orthogonalLoop=1;jettySize=auto;html=1;exitX=0.5;exitY=0;exitDx=0;exitDy=0;entryX=0.5;entryY=1;entryDx=0;entryDy=0;endArrow=none;endFill=0;fontFamily=Libertine;strokeColor=default;fontSource=https%3A%2F%2Ffonts.cdnfonts.com%2Fcss%2Flinux-libertine;" edge="1" parent="1" source="3EwqKkP2R3SG_fMcNXbj-43" target="3EwqKkP2R3SG_fMcNXbj-34">
          <mxGeometry relative="1" as="geometry" />
        </mxCell>
        <mxCell id="3EwqKkP2R3SG_fMcNXbj-43" value="&lt;font style=&quot;font-size: 10px;&quot;&gt;Multiplexer&lt;/font&gt;" style="ellipse;whiteSpace=wrap;html=1;strokeColor=none;fontFamily=Libertine;fontSource=https%3A%2F%2Ffonts.cdnfonts.com%2Fcss%2Flinux-libertine;" vertex="1" parent="1">
          <mxGeometry x="305.5" y="222.5" width="50" height="20" as="geometry" />
        </mxCell>
        <mxCell id="3EwqKkP2R3SG_fMcNXbj-49" value="&lt;font style=&quot;font-size: 10px;&quot;&gt;HT&lt;sub&gt;1&lt;/sub&gt;&lt;/font&gt;" style="ellipse;whiteSpace=wrap;html=1;strokeColor=none;fontFamily=Libertine;fontSource=https%3A%2F%2Ffonts.cdnfonts.com%2Fcss%2Flinux-libertine;" vertex="1" parent="1">
          <mxGeometry x="215" y="191" width="50" height="20" as="geometry" />
        </mxCell>
        <mxCell id="3EwqKkP2R3SG_fMcNXbj-73" value="&lt;font style=&quot;font-size: 10px;&quot;&gt;HT&lt;/font&gt;&lt;font style=&quot;font-size: 8.333333px;&quot;&gt;&lt;sub&gt;2&lt;/sub&gt;&lt;/font&gt;" style="ellipse;whiteSpace=wrap;html=1;strokeColor=none;fontFamily=Libertine;fontSource=https%3A%2F%2Ffonts.cdnfonts.com%2Fcss%2Flinux-libertine;" vertex="1" parent="1">
          <mxGeometry x="215" y="138" width="50" height="20" as="geometry" />
        </mxCell>
        <mxCell id="3EwqKkP2R3SG_fMcNXbj-74" value="" style="shape=table;startSize=5;container=1;collapsible=0;childLayout=tableLayout;strokeColor=default;fontSize=16;" vertex="1" parent="1">
          <mxGeometry x="221.25" y="158" width="37.5" height="22" as="geometry" />
        </mxCell>
        <mxCell id="3EwqKkP2R3SG_fMcNXbj-75" value="" style="shape=tableRow;horizontal=0;startSize=0;swimlaneHead=0;swimlaneBody=0;strokeColor=inherit;top=0;left=0;bottom=0;right=0;collapsible=0;dropTarget=0;fillColor=none;points=[[0,0.5],[1,0.5]];portConstraint=eastwest;fontSize=16;" vertex="1" parent="3EwqKkP2R3SG_fMcNXbj-74">
          <mxGeometry y="5" width="37.5" height="9" as="geometry" />
        </mxCell>
        <mxCell id="3EwqKkP2R3SG_fMcNXbj-76" value="" style="shape=partialRectangle;html=1;whiteSpace=wrap;connectable=0;strokeColor=inherit;overflow=hidden;fillColor=none;top=0;left=0;bottom=0;right=0;pointerEvents=1;fontSize=16;" vertex="1" parent="3EwqKkP2R3SG_fMcNXbj-75">
          <mxGeometry width="13" height="9" as="geometry">
            <mxRectangle width="13" height="9" as="alternateBounds" />
          </mxGeometry>
        </mxCell>
        <mxCell id="3EwqKkP2R3SG_fMcNXbj-77" value="" style="shape=partialRectangle;html=1;whiteSpace=wrap;connectable=0;strokeColor=inherit;overflow=hidden;fillColor=none;top=0;left=0;bottom=0;right=0;pointerEvents=1;fontSize=16;" vertex="1" parent="3EwqKkP2R3SG_fMcNXbj-75">
          <mxGeometry x="13" width="12" height="9" as="geometry">
            <mxRectangle width="12" height="9" as="alternateBounds" />
          </mxGeometry>
        </mxCell>
        <mxCell id="3EwqKkP2R3SG_fMcNXbj-78" value="" style="shape=partialRectangle;html=1;whiteSpace=wrap;connectable=0;strokeColor=inherit;overflow=hidden;fillColor=none;top=0;left=0;bottom=0;right=0;pointerEvents=1;fontSize=16;" vertex="1" parent="3EwqKkP2R3SG_fMcNXbj-75">
          <mxGeometry x="25" width="13" height="9" as="geometry">
            <mxRectangle width="13" height="9" as="alternateBounds" />
          </mxGeometry>
        </mxCell>
        <mxCell id="3EwqKkP2R3SG_fMcNXbj-79" value="" style="shape=tableRow;horizontal=0;startSize=0;swimlaneHead=0;swimlaneBody=0;strokeColor=inherit;top=0;left=0;bottom=0;right=0;collapsible=0;dropTarget=0;fillColor=none;points=[[0,0.5],[1,0.5]];portConstraint=eastwest;fontSize=16;" vertex="1" parent="3EwqKkP2R3SG_fMcNXbj-74">
          <mxGeometry y="14" width="37.5" height="8" as="geometry" />
        </mxCell>
        <mxCell id="3EwqKkP2R3SG_fMcNXbj-80" value="" style="shape=partialRectangle;html=1;whiteSpace=wrap;connectable=0;strokeColor=inherit;overflow=hidden;fillColor=none;top=0;left=0;bottom=0;right=0;pointerEvents=1;fontSize=16;" vertex="1" parent="3EwqKkP2R3SG_fMcNXbj-79">
          <mxGeometry width="13" height="8" as="geometry">
            <mxRectangle width="13" height="8" as="alternateBounds" />
          </mxGeometry>
        </mxCell>
        <mxCell id="3EwqKkP2R3SG_fMcNXbj-81" value="" style="shape=partialRectangle;html=1;whiteSpace=wrap;connectable=0;strokeColor=inherit;overflow=hidden;fillColor=none;top=0;left=0;bottom=0;right=0;pointerEvents=1;fontSize=16;" vertex="1" parent="3EwqKkP2R3SG_fMcNXbj-79">
          <mxGeometry x="13" width="12" height="8" as="geometry">
            <mxRectangle width="12" height="8" as="alternateBounds" />
          </mxGeometry>
        </mxCell>
        <mxCell id="3EwqKkP2R3SG_fMcNXbj-82" value="" style="shape=partialRectangle;html=1;whiteSpace=wrap;connectable=0;strokeColor=inherit;overflow=hidden;fillColor=none;top=0;left=0;bottom=0;right=0;pointerEvents=1;fontSize=16;" vertex="1" parent="3EwqKkP2R3SG_fMcNXbj-79">
          <mxGeometry x="25" width="13" height="8" as="geometry">
            <mxRectangle width="13" height="8" as="alternateBounds" />
          </mxGeometry>
        </mxCell>
        <mxCell id="3EwqKkP2R3SG_fMcNXbj-83" value="" style="shape=table;startSize=5;container=1;collapsible=0;childLayout=tableLayout;strokeColor=default;fontSize=16;" vertex="1" parent="1">
          <mxGeometry x="221.25" y="211" width="37.5" height="22" as="geometry" />
        </mxCell>
        <mxCell id="3EwqKkP2R3SG_fMcNXbj-84" value="" style="shape=tableRow;horizontal=0;startSize=0;swimlaneHead=0;swimlaneBody=0;strokeColor=inherit;top=0;left=0;bottom=0;right=0;collapsible=0;dropTarget=0;fillColor=none;points=[[0,0.5],[1,0.5]];portConstraint=eastwest;fontSize=16;" vertex="1" parent="3EwqKkP2R3SG_fMcNXbj-83">
          <mxGeometry y="5" width="37.5" height="9" as="geometry" />
        </mxCell>
        <mxCell id="3EwqKkP2R3SG_fMcNXbj-85" value="" style="shape=partialRectangle;html=1;whiteSpace=wrap;connectable=0;strokeColor=inherit;overflow=hidden;fillColor=none;top=0;left=0;bottom=0;right=0;pointerEvents=1;fontSize=16;" vertex="1" parent="3EwqKkP2R3SG_fMcNXbj-84">
          <mxGeometry width="13" height="9" as="geometry">
            <mxRectangle width="13" height="9" as="alternateBounds" />
          </mxGeometry>
        </mxCell>
        <mxCell id="3EwqKkP2R3SG_fMcNXbj-86" value="" style="shape=partialRectangle;html=1;whiteSpace=wrap;connectable=0;strokeColor=inherit;overflow=hidden;fillColor=none;top=0;left=0;bottom=0;right=0;pointerEvents=1;fontSize=16;" vertex="1" parent="3EwqKkP2R3SG_fMcNXbj-84">
          <mxGeometry x="13" width="12" height="9" as="geometry">
            <mxRectangle width="12" height="9" as="alternateBounds" />
          </mxGeometry>
        </mxCell>
        <mxCell id="3EwqKkP2R3SG_fMcNXbj-87" value="" style="shape=partialRectangle;html=1;whiteSpace=wrap;connectable=0;strokeColor=inherit;overflow=hidden;fillColor=none;top=0;left=0;bottom=0;right=0;pointerEvents=1;fontSize=16;" vertex="1" parent="3EwqKkP2R3SG_fMcNXbj-84">
          <mxGeometry x="25" width="13" height="9" as="geometry">
            <mxRectangle width="13" height="9" as="alternateBounds" />
          </mxGeometry>
        </mxCell>
        <mxCell id="3EwqKkP2R3SG_fMcNXbj-88" value="" style="shape=tableRow;horizontal=0;startSize=0;swimlaneHead=0;swimlaneBody=0;strokeColor=inherit;top=0;left=0;bottom=0;right=0;collapsible=0;dropTarget=0;fillColor=none;points=[[0,0.5],[1,0.5]];portConstraint=eastwest;fontSize=16;" vertex="1" parent="3EwqKkP2R3SG_fMcNXbj-83">
          <mxGeometry y="14" width="37.5" height="8" as="geometry" />
        </mxCell>
        <mxCell id="3EwqKkP2R3SG_fMcNXbj-89" value="" style="shape=partialRectangle;html=1;whiteSpace=wrap;connectable=0;strokeColor=inherit;overflow=hidden;fillColor=none;top=0;left=0;bottom=0;right=0;pointerEvents=1;fontSize=16;" vertex="1" parent="3EwqKkP2R3SG_fMcNXbj-88">
          <mxGeometry width="13" height="8" as="geometry">
            <mxRectangle width="13" height="8" as="alternateBounds" />
          </mxGeometry>
        </mxCell>
        <mxCell id="3EwqKkP2R3SG_fMcNXbj-90" value="" style="shape=partialRectangle;html=1;whiteSpace=wrap;connectable=0;strokeColor=inherit;overflow=hidden;fillColor=none;top=0;left=0;bottom=0;right=0;pointerEvents=1;fontSize=16;" vertex="1" parent="3EwqKkP2R3SG_fMcNXbj-88">
          <mxGeometry x="13" width="12" height="8" as="geometry">
            <mxRectangle width="12" height="8" as="alternateBounds" />
          </mxGeometry>
        </mxCell>
        <mxCell id="3EwqKkP2R3SG_fMcNXbj-91" value="" style="shape=partialRectangle;html=1;whiteSpace=wrap;connectable=0;strokeColor=inherit;overflow=hidden;fillColor=none;top=0;left=0;bottom=0;right=0;pointerEvents=1;fontSize=16;" vertex="1" parent="3EwqKkP2R3SG_fMcNXbj-88">
          <mxGeometry x="25" width="13" height="8" as="geometry">
            <mxRectangle width="13" height="8" as="alternateBounds" />
          </mxGeometry>
        </mxCell>
        <mxCell id="3EwqKkP2R3SG_fMcNXbj-108" style="rounded=0;orthogonalLoop=1;jettySize=auto;html=1;entryX=1;entryY=0.5;entryDx=0;entryDy=0;endArrow=none;endFill=0;" edge="1" parent="1">
          <mxGeometry relative="1" as="geometry">
            <mxPoint x="221.25" y="222.5" as="sourcePoint" />
            <mxPoint x="200.25" y="222.5" as="targetPoint" />
          </mxGeometry>
        </mxCell>
        <mxCell id="3EwqKkP2R3SG_fMcNXbj-109" style="rounded=0;orthogonalLoop=1;jettySize=auto;html=1;entryX=1;entryY=0.5;entryDx=0;entryDy=0;endArrow=none;endFill=0;" edge="1" parent="1">
          <mxGeometry relative="1" as="geometry">
            <mxPoint x="279.75" y="222.5" as="sourcePoint" />
            <mxPoint x="258.75" y="222.5" as="targetPoint" />
          </mxGeometry>
        </mxCell>
        <mxCell id="3EwqKkP2R3SG_fMcNXbj-110" style="rounded=0;orthogonalLoop=1;jettySize=auto;html=1;entryX=1;entryY=0.5;entryDx=0;entryDy=0;endArrow=none;endFill=0;" edge="1" parent="1">
          <mxGeometry relative="1" as="geometry">
            <mxPoint x="280" y="168.9" as="sourcePoint" />
            <mxPoint x="259" y="168.9" as="targetPoint" />
          </mxGeometry>
        </mxCell>
        <mxCell id="3EwqKkP2R3SG_fMcNXbj-111" style="rounded=0;orthogonalLoop=1;jettySize=auto;html=1;entryX=1;entryY=0.5;entryDx=0;entryDy=0;endArrow=none;endFill=0;" edge="1" parent="1">
          <mxGeometry relative="1" as="geometry">
            <mxPoint x="221.25" y="168.9" as="sourcePoint" />
            <mxPoint x="200.25" y="168.9" as="targetPoint" />
          </mxGeometry>
        </mxCell>
        <mxCell id="3EwqKkP2R3SG_fMcNXbj-112" value="&lt;font color=&quot;#a0b1ba&quot; style=&quot;font-size: 9px;&quot;&gt;Parallel Source&lt;/font&gt;" style="text;html=1;strokeColor=none;fillColor=none;align=center;verticalAlign=middle;whiteSpace=wrap;rounded=0;fontFamily=Libertine;fontSize=10;fontSource=https%3A%2F%2Ffonts.cdnfonts.com%2Fcss%2Flinux-libertine;" vertex="1" parent="1">
          <mxGeometry x="250" y="315" width="65" height="10" as="geometry" />
        </mxCell>
        <mxCell id="3EwqKkP2R3SG_fMcNXbj-113" value="&lt;font color=&quot;#a0b1ba&quot; style=&quot;font-size: 9px;&quot;&gt;Parallel Sink&lt;/font&gt;" style="text;html=1;strokeColor=none;fillColor=none;align=center;verticalAlign=middle;whiteSpace=wrap;rounded=0;fontFamily=Libertine;fontSize=10;fontSource=https%3A%2F%2Ffonts.cdnfonts.com%2Fcss%2Flinux-libertine;" vertex="1" parent="1">
          <mxGeometry x="250" y="77" width="65" height="10" as="geometry" />
        </mxCell>
        <mxCell id="3EwqKkP2R3SG_fMcNXbj-114" value="&lt;font color=&quot;#a0b1ba&quot; style=&quot;font-size: 9px;&quot;&gt;Thread 1&lt;/font&gt;" style="text;html=1;strokeColor=none;fillColor=none;align=left;verticalAlign=middle;whiteSpace=wrap;rounded=0;fontFamily=Libertine;fontSize=10;fontSource=https%3A%2F%2Ffonts.cdnfonts.com%2Fcss%2Flinux-libertine;" vertex="1" parent="1">
          <mxGeometry x="100" y="275" width="65" height="25" as="geometry" />
        </mxCell>
        <mxCell id="3EwqKkP2R3SG_fMcNXbj-115" value="&lt;font color=&quot;#a0b1ba&quot; style=&quot;font-size: 9px;&quot;&gt;Thread 2&lt;/font&gt;" style="text;html=1;strokeColor=none;fillColor=none;align=right;verticalAlign=middle;whiteSpace=wrap;rounded=0;fontFamily=Libertine;fontSize=10;fontSource=https%3A%2F%2Ffonts.cdnfonts.com%2Fcss%2Flinux-libertine;" vertex="1" parent="1">
          <mxGeometry x="315" y="275" width="65" height="25" as="geometry" />
        </mxCell>
      </root>
    </mxGraphModel>
  </diagram>
</mxfile>
